# xmcd
#
# Track frame offsets:
# 150
# 23842
# 41440
# 59695
# 74985
# 92312
# 104720
# 124337
# 143052
# 166457
# 174045
# 188265
# 204770
# 218505
#
# Disc length: 3203 seconds
#
#
# Revision: 2
# Processed by: cddbd v1.5.1PL2 Copyright (c) Steve Scherf et al.
# Submitted via: FreeRIP 2.942 
#
DISCID=be0c810e
DTITLE=Zé Ramalho - RCA - 100 Anos de Música [CD02)
DYEAR=2001
DGENRE=Other
TTITLE0=Avohai (Versão Acústica)
TTITLE1=Mulher Nova, Bonita e Carinhosa, Faz o Homem Gemer sem Sentir
TTITLE2=Lamento Sertanejo (Forró do Dominguinhos)
TTITLE3=Para um Amor no Recife
TTITLE4=Errare Humanum Est
TTITLE5=Pau de Arara
TTITLE6=Beira-Mar
TTITLE7=Temporal
TTITLE8=Menino do Sertão
TTITLE9=Litúrgica
TTITLE10=Alforria
TTITLE11=Das Maravilhas
TTITLE12=A Peleja de Zé Limeira no Final do Segundo Milênio
TTITLE13=A Peleja do Diabo com o Dono do Céu (ao vivo)
EXTD=
EXTT0=
EXTT1=
EXTT2=
EXTT3=
EXTT4=
EXTT5=
EXTT6=
EXTT7=
EXTT8=
EXTT9=
EXTT10=
EXTT11=
EXTT12=
EXTT13=
PLAYORDER=
